<svg height="512pt" viewBox="0 0 512.002 512" width="512pt" xmlns="http://www.w3.org/2000/svg"><path d="m103.921875 81.222656h-62.539063c-17.332031 0-31.382812 14.046875-31.382812 31.378906v334.019532c0 17.332031 14.050781 31.378906 31.382812 31.378906h264.34375c17.332032 0 31.378907-14.050781 31.378907-31.378906v-334.019532c0-17.332031-14.050781-31.378906-31.378907-31.378906zm0 0" fill="#ffc66c"/><path d="m378.09375 411.90625 83.089844 83.09375c9.339844 9.335938 24.476562 9.335938 33.8125 0 9.339844-9.339844 9.339844-24.476562 0-33.8125l-83.089844-83.089844zm0 0" fill="#ff5d5d"/><path d="m430.003906 310.003906c0 66.273438-53.726562 120-120 120-66.273437 0-120-53.726562-120-120 0-66.277344 53.726563-120 120-120 66.273438 0 120 53.722656 120 120zm0 0" fill="#fff"/><path d="m388.003906 310.003906c0 43.078125-34.921875 78-78 78s-78-34.921875-78-78c0-43.082031 34.921875-78 78-78s78 34.917969 78 78zm0 0" fill="#72d8ff"/><path d="m322.667969 321.003906h-25.328125c-21.722656 0-39.335938 17.609375-39.335938 39.332032v7.789062c13.800782 12.355469 32.019532 19.875 52 19.875 19.980469 0 38.199219-7.519531 52-19.875v-7.789062c0-21.722657-17.609375-39.332032-39.335937-39.332032zm0 0" fill="#4dbaf6"/><path d="m213.152344 29.585938h-13.859375c-3.117188-11.289063-13.457031-19.585938-25.738281-19.585938s-22.621094 8.296875-25.738282 19.585938h-13.878906c-25.320312 0-45.847656 20.527343-45.847656 45.847656v5.789062h170.910156v-5.789062c0-25.320313-20.527344-45.847656-45.847656-45.847656zm0 0" fill="#72d8ff"/><path d="m310.003906 270.003906c-14.082031 0-25.5 11.414063-25.5 25.5 0 14.082032 11.417969 25.5 25.5 25.5 14.085938 0 25.5-11.417968 25.5-25.5 0-14.085937-11.414062-25.5-25.5-25.5zm0 0" fill="#ffefd5"/><path d="m173.539062 58.28125c2.640626 0 5.210938-1.070312 7.070313-2.929688 1.871094-1.859374 2.929687-4.441406 2.929687-7.070312s-1.058593-5.210938-2.929687-7.070312c-1.859375-1.859376-4.429687-2.929688-7.070313-2.929688-2.628906 0-5.199218 1.070312-7.070312 2.929688-1.859375 1.859374-2.929688 4.429687-2.929688 7.070312s1.070313 5.210938 2.929688 7.070312c1.871094 1.859376 4.441406 2.929688 7.070312 2.929688zm0 0"/><path d="m222.003906 310c0 48.523438 39.476563 88 88 88 48.523438 0 88-39.476562 88-88s-39.476562-88-88-88c-48.523437 0-88 39.476562-88 88zm46 53.421875v-3.085937c0-16.175782 13.160156-29.335938 29.335938-29.335938h25.328125c16.175781 0 29.335937 13.160156 29.335937 29.335938v3.085937c-11.570312 9.117187-26.15625 14.578125-42 14.578125s-30.425781-5.460938-42-14.578125zm42-52.421875c-8.546875 0-15.5-6.953125-15.5-15.5s6.953125-15.5 15.5-15.5 15.5 6.953125 15.5 15.503906c0 8.542969-6.953125 15.496094-15.5 15.496094zm68-1c0 12.222656-3.257812 23.6875-8.921875 33.609375-4.886719-13.511719-15.515625-24.296875-28.929687-29.394531 3.386718-5.4375 5.351562-11.851563 5.351562-18.714844 0-19.574219-15.925781-35.5-35.5-35.5-19.574218 0-35.5 15.925781-35.5 35.503906 0 6.859375 1.964844 13.273438 5.351563 18.710938-13.410157 5.097656-24.042969 15.882812-28.925781 29.394531-5.667969-9.921875-8.925782-21.386719-8.925782-33.609375 0-37.492188 30.507813-68 68-68 37.496094 0 68 30.507812 68 68zm0 0"/><path d="m502.066406 454.113281-79.363281-79.363281c11-19.078125 17.300781-41.191406 17.300781-64.75 0-58.792969-39.234375-108.585938-92.894531-124.59375v-72.804688c0-22.816406-18.5625-41.378906-41.382813-41.378906h-36.902343c-2.164063-28.832031-26.296875-51.636718-55.671875-51.636718h-7.132813c-6.253906-11.828126-18.691406-19.585938-32.464843-19.585938-13.773438 0-26.210938 7.761719-32.464844 19.585938h-7.152344c-29.375 0-53.507812 22.804687-55.671875 51.636718h-36.882813c-22.820312 0-41.382812 18.5625-41.382812 41.378906v334.019532c0 22.816406 18.5625 41.382812 41.382812 41.382812h264.34375c22.816407 0 41.382813-18.566406 41.382813-41.382812v-12.023438c9.734375-2.902344 19-6.910156 27.636719-11.894531l79.367187 79.367187c6.613281 6.613282 15.296875 9.917969 23.980469 9.917969s17.367188-3.304687 23.976562-9.917969c6.402344-6.402343 9.933594-14.917968 9.933594-23.976562-.003906-9.058594-3.53125-17.574219-9.9375-23.980469zm-82.0625-144.113281c0 60.65625-49.34375 110-110 110-60.652344 0-110-49.34375-110-110 0-60.652344 49.347656-110 110-110 60.65625 0 110 49.347656 110 110zm-286.066406-270.414062h13.875c4.5 0 8.445312-3.003907 9.640625-7.339844 1.992187-7.210938 8.613281-12.246094 16.101563-12.246094 7.488281 0 14.109374 5.035156 16.097656 12.246094 1.199218 4.335937 5.144531 7.339844 9.640625 7.339844h13.859375c18.339844 0 33.507812 13.847656 35.601562 31.636718h-150.417968c2.09375-17.789062 17.261718-31.636718 35.601562-31.636718zm193.167969 407.035156c0 11.789062-9.589844 21.378906-21.378907 21.378906h-264.34375c-11.789062 0-21.382812-9.589844-21.382812-21.378906v-334.019532c0-11.789062 9.59375-21.378906 21.382812-21.378906h264.34375c11.789063 0 21.382813 9.589844 21.382813 21.378906v68.527344c-5.597656-.738281-11.308594-1.125-17.105469-1.125-48.480468 0-90.84375 26.679688-113.191406 66.125h-90.402344c-5.523437 0-10 4.476563-10 10 0 5.523438 4.476563 10 10 10h81.222656c-3.210937 8.925782-5.472656 18.300782-6.65625 28h-117.308593c-5.523438 0-10 4.476563-10 10 0 5.523438 4.476562 10 10 10h116.410156c.300781 9.632813 1.652344 19.003906 3.945313 28h-120.355469c-5.523438 0-10 4.476563-10 10 0 5.523438 4.476562 10 10 10h126.335937c.304688 0 .605469-.019531.902344-.046875 20.117188 45.828125 65.925781 77.921875 119.097656 77.921875 5.796875 0 11.503906-.390625 17.105469-1.128906v7.746094zm160.820312 41.308594c-5.421875 5.421874-14.246093 5.421874-19.667969 0l-76.738281-76.738282c7.234375-5.839844 13.832031-12.4375 19.667969-19.671875l76.738281 76.738281c2.628907 2.628907 4.074219 6.121094 4.074219 9.835938s-1.445312 7.207031-4.074219 9.835938zm0 0"/><path d="m202.796875 192.554688c1.5625 3.703124 5.191406 6.113281 9.214844 6.113281 4.019531 0 7.648437-2.410157 9.214843-6.113281l25.578126-60.667969c2.148437-5.089844-.238282-10.953125-5.328126-13.101563-5.089843-2.144531-10.953124.238282-13.097656 5.328125l-16.367187 38.816407-16.367188-38.816407c-2.144531-5.085937-8.011719-7.472656-13.101562-5.328125-5.089844 2.148438-7.472657 8.011719-5.328125 13.101563zm0 0"/><path d="m129.945312 198.667969c12.757813 0 24.257813-8.054688 28.621094-20.039063 1.886719-5.1875-.789062-10.925781-5.980468-12.816406-5.191407-1.886719-10.929688.789062-12.816407 5.976562-1.496093 4.113282-5.445312 6.878907-9.824219 6.878907-5.761718 0-10.449218-4.6875-10.449218-10.449219v-19.769531c0-5.761719 4.6875-10.449219 10.449218-10.449219 4.378907 0 8.328126 2.765625 9.824219 6.878906 1.890625 5.1875 7.625 7.867188 12.816407 5.976563 5.191406-1.886719 7.867187-7.625 5.980468-12.816407-4.363281-11.984374-15.863281-20.035156-28.621094-20.035156-16.789062 0-30.449218 13.65625-30.449218 30.445313v19.769531c0 16.789062 13.660156 30.449219 30.449218 30.449219zm0 0"/><path d="m63.671875 266.132812c2.628906 0 5.207031-1.070312 7.066406-2.933593 1.859375-1.859375 2.933594-4.4375 2.933594-7.066407 0-2.632812-1.070313-5.210937-2.933594-7.070312-1.859375-1.863281-4.4375-2.929688-7.066406-2.929688-2.640625 0-5.210937 1.066407-7.070313 2.929688-1.871093 1.859375-2.929687 4.429688-2.929687 7.070312 0 2.628907 1.066406 5.207032 2.929687 7.066407 1.859376 1.863281 4.429688 2.933593 7.070313 2.933593zm0 0"/><path d="m137.910156 390.128906h-74.242187c-5.523438 0-10 4.476563-10 10 0 5.519532 4.476562 10 10 10h74.242187c5.523438 0 10-4.480468 10-10 0-5.523437-4.476562-10-10-10zm0 0"/><path d="m173.550781 390.132812c-2.628906 0-5.199219 1.058594-7.070312 2.929688-1.859375 1.859375-2.929688 4.4375-2.929688 7.070312 0 2.628907 1.070313 5.199219 2.929688 7.066407 1.871093 1.863281 4.441406 2.933593 7.070312 2.933593 2.640625 0 5.210938-1.070312 7.070313-2.933593 1.867187-1.867188 2.9375-4.4375 2.9375-7.066407 0-2.632812-1.070313-5.210937-2.9375-7.070312-1.859375-1.871094-4.433594-2.929688-7.070313-2.929688zm0 0"/></svg>